<?xml version="1.0" encoding="UTF-8" standalone="no"?>
<!DOCTYPE svg PUBLIC "-//W3C//DTD SVG 1.1//EN" "http://www.w3.org/Graphics/SVG/1.1/DTD/svg11.dtd">
<svg version="1.1" xmlns="http://www.w3.org/2000/svg" xmlns:xlink="http://www.w3.org/1999/xlink" preserveAspectRatio="xMidYMid meet" viewBox="0 0 640 640" width="640" height="640"><defs><path d="M290.38 427.38C290.38 427.38 290.38 427.38 290.38 427.38C269.87 406.87 269.6 373.89 289.78 353.71C308.78 334.71 460.78 182.71 479.78 163.71C499.96 143.53 532.94 143.8 553.45 164.3C553.45 164.3 553.45 164.3 553.45 164.3C573.96 184.81 574.22 217.8 554.05 237.98C541.38 250.64 478.05 313.98 364.05 427.98C328.6 441.25 304.05 441.05 290.38 427.38Z" id="d2R9qRXrE8"></path><path d="M364.84 427.38C364.84 427.38 364.84 427.38 364.84 427.38C385.35 406.87 385.61 373.89 365.43 353.71C346.43 334.71 194.43 182.71 175.43 163.71C155.26 143.53 122.27 143.8 101.76 164.3C101.76 164.3 101.76 164.3 101.76 164.3C81.26 184.81 80.99 217.8 101.17 237.98C113.84 250.64 177.17 313.98 291.17 427.98C326.61 441.25 351.17 441.05 364.84 427.38Z" id="b24nzlqHer"></path><path d="M177.43 333.71C177.43 333.52 177.65 333.37 177.92 333.37C178.19 333.37 178.42 333.52 178.42 333.71C178.42 333.91 178.19 334.06 177.92 334.36C177.65 334.06 177.43 333.91 177.43 333.71Z" id="eDVQNzdw"></path></defs><g><g><g><use xlink:href="#d2R9qRXrE8" opacity="1" fill="#f05f40" fill-opacity="1"></use><g><use xlink:href="#d2R9qRXrE8" opacity="1" fill-opacity="0" stroke="#000000" stroke-width="1" stroke-opacity="0"></use></g></g><g><use xlink:href="#b24nzlqHer" opacity="1" fill="#f05f40" fill-opacity="1"></use><g><use xlink:href="#b24nzlqHer" opacity="1" fill-opacity="0" stroke="#000000" stroke-width="1" stroke-opacity="0"></use></g></g><g><use xlink:href="#eDVQNzdw" opacity="1" fill="#4c83d3" fill-opacity="1"></use></g></g></g></svg>